<?xml version="1.0" encoding="UTF-8" standalone="no"?>
<svg
   version="1.0"
   width="355.000000pt"
   height="375.000000pt"
   viewBox="0 0 355.000000 375.000000"
   preserveAspectRatio="xMidYMid meet"
   id="svg8"
   sodipodi:docname="logo.svg"
   inkscape:version="1.3.2 (091e20ef0f, 2023-11-25, custom)"
   xmlns:inkscape="http://www.inkscape.org/namespaces/inkscape"
   xmlns:sodipodi="http://sodipodi.sourceforge.net/DTD/sodipodi-0.dtd"
   xmlns="http://www.w3.org/2000/svg"
   xmlns:svg="http://www.w3.org/2000/svg">
  <defs
     id="defs8">
    <rect
       x="56.50016"
       y="359.75408"
       width="393.2578"
       height="114.78831"
       id="rect1" />
    <rect
       x="56.50016"
       y="359.75409"
       width="393.25781"
       height="114.78831"
       id="rect1-7" />
    <rect
       x="56.50016"
       y="359.75409"
       width="393.25781"
       height="114.78831"
       id="rect1-7-4" />
    <rect
       x="56.50016"
       y="359.75409"
       width="393.25781"
       height="114.78831"
       id="rect1-7-4-8" />
  </defs>
  <sodipodi:namedview
     id="namedview8"
     pagecolor="#505050"
     bordercolor="#eeeeee"
     borderopacity="1"
     inkscape:showpageshadow="0"
     inkscape:pageopacity="0"
     inkscape:pagecheckerboard="0"
     inkscape:deskcolor="#d1d1d1"
     inkscape:document-units="pt"
     inkscape:zoom="1.304"
     inkscape:cx="295.2454"
     inkscape:cy="276.84049"
     inkscape:window-width="1916"
     inkscape:window-height="1061"
     inkscape:window-x="0"
     inkscape:window-y="0"
     inkscape:window-maximized="1"
     inkscape:current-layer="svg8" />
  <g
     transform="translate(0.000000,375.000000) scale(0.100000,-0.100000)"
     fill="#000000"
     stroke="none"
     id="g8">
    <path
       d="M1672 3670 c-129 -11 -243 -28 -256 -39 -6 -5 -36 -12 -66 -15 -68 -9 -105 -22 -147 -53 -18 -13 -46 -26 -63 -29 -17 -4 -35 -15 -40 -25 -6 -10 -39 -32 -75 -50 -35 -17 -74 -41 -85 -53 -11 -11 -56 -57 -100 -101 -44 -44 -80 -85 -80 -90 0 -6 -25 -35 -54 -66 -33 -35 -57 -70 -61 -90 -8 -34 -26 -72 -57 -119 -9 -14 -22 -46 -27 -72 -6 -26 -31 -98 -55 -160 -49 -128 -68 -203 -66 -268 0 -25 2 -106 3 -180 l2 -135 -50 -6 c-54 -7 -115 -33 -128 -55 -4 -8 -28 -25 -52 -39 -49 -29 -98 -105 -108 -169 -3 -21 -12 -46 -20 -55 -33 -37 -28 -241 7 -281 7 -8 16 -26 19 -40 6 -22 57 -65 131 -107 28 -17 129 -16 169 1 18 7 45 25 60 40 48 45 75 29 88 -56 5 -28 15 -58 24 -68 8 -9 15 -25 15 -36 0 -10 12 -41 25 -69 14 -27 25 -55 25 -62 0 -22 310 -323 333 -323 3 0 28 -15 54 -32 62 -42 146 -77 203 -84 46 -6 142 -35 195 -58 17 -8 55 -17 85 -21 65 -8 130 -25 148 -38 7 -6 12 -34 12 -73 0 -51 -4 -68 -20 -84 -23 -23 -39 -25 -73 -9 -15 7 -36 7 -56 2 -20 -5 -58 -5 -93 1 -49 8 -61 7 -69 -4 -26 -39 20 -252 63 -294 16 -15 19 -26 13 -62 -6 -42 -5 -44 19 -44 14 0 26 6 26 13 1 25 47 66 100 90 30 13 63 34 74 45 17 20 17 22 2 28 -9 3 -31 3 -49 0 -75 -14 -117 -18 -140 -12 -58 14 -73 183 -18 201 11 3 44 -9 82 -30 34 -20 83 -45 108 -55 48 -20 228 -50 300 -50 52 0 99 -19 130 -54 30 -32 62 -33 124 -6 53 24 70 19 98 -26 38 -63 85 -77 171 -54 71 20 56 60 -27 71 -38 5 -65 15 -82 31 -48 45 -47 51 19 117 34 33 66 61 72 61 32 -1 56 -43 56 -99 0 -50 23 -56 39 -10 25 71 16 97 -54 164 -105 102 -122 197 -42 237 76 38 147 68 164 68 10 1 29 7 43 15 14 8 34 15 45 15 11 0 31 7 45 15 14 7 39 20 57 29 27 12 141 115 237 212 42 43 50 53 86 118 18 31 35 56 40 56 4 0 11 12 14 26 4 14 23 48 42 75 19 28 45 76 56 107 12 32 30 66 40 78 10 11 18 34 18 51 0 17 9 50 20 74 11 24 20 54 20 65 0 13 15 33 35 48 19 15 35 32 35 37 0 6 9 22 20 36 16 21 20 41 20 102 0 87 -9 106 -117 249 -29 39 -33 51 -33 107 0 36 -6 84 -14 107 -7 24 -24 84 -36 133 -13 50 -41 127 -62 172 -21 46 -38 91 -38 101 0 11 -8 30 -18 43 -11 13 -22 36 -26 52 -3 15 -10 27 -15 27 -5 0 -30 36 -55 80 -26 44 -51 80 -56 80 -5 0 -19 23 -31 50 -12 28 -30 56 -39 63 -10 7 -57 49 -106 94 -226 208 -324 276 -454 314 -25 7 -58 21 -75 31 -16 10 -39 18 -50 18 -11 0 -49 10 -85 22 -38 12 -111 24 -175 29 -60 5 -137 10 -170 13 -33 2 -106 0 -163 -4z m268 -66 c44 -1 111 -13 160 -27 133 -40 353 -118 370 -132 8 -7 27 -19 41 -26 39 -20 98 -69 138 -111 19 -21 38 -38 43 -38 20 0 230 -207 249 -245 11 -22 35 -60 54 -85 50 -66 126 -196 142 -243 8 -23 30 -74 49 -114 19 -40 34 -81 34 -91 0 -11 7 -39 16 -63 21 -62 44 -173 44 -220 0 -21 13 -80 29 -131 31 -101 47 -280 32 -368 -29 -162 -93 -314 -173 -409 -16 -18 -28 -37 -28 -42 0 -6 -14 -30 -30 -54 -17 -24 -34 -52 -38 -63 -4 -10 -56 -64 -117 -121 -114 -106 -190 -152 -350 -210 -33 -12 -70 -29 -82 -36 -31 -21 -229 -85 -261 -85 -15 0 -63 -7 -107 -14 -93 -16 -268 -21 -440 -11 -95 6 -133 12 -179 32 -54 22 -95 33 -236 63 -62 13 -201 68 -225 89 -11 10 -45 35 -75 56 -119 83 -276 232 -305 290 -11 22 -26 47 -33 56 -7 9 -24 56 -38 105 -27 92 -56 134 -94 134 -11 0 -43 -10 -72 -21 -125 -51 -236 -20 -294 81 -16 29 -35 62 -42 73 -16 27 -9 110 15 182 50 153 228 275 335 231 32 -14 38 -14 48 -1 22 26 22 190 0 274 -23 87 -27 153 -12 201 6 19 13 52 16 72 4 20 24 74 46 120 21 46 41 101 45 123 4 22 22 68 41 103 19 34 34 70 34 78 0 67 255 346 369 403 31 16 63 36 70 45 23 27 155 93 201 100 24 4 65 16 90 28 37 17 74 22 220 28 96 4 186 5 200 2 14 -3 59 -6 100 -8z m415 -3094 c7 -25 17 -60 23 -77 10 -30 7 -37 -28 -82 -53 -67 -83 -88 -143 -101 -50 -11 -55 -11 -127 24 -56 27 -87 36 -127 36 -49 0 -149 23 -215 49 -25 9 -28 15 -28 60 0 40 4 52 21 61 11 6 97 15 192 20 193 11 253 17 282 30 25 11 105 29 124 27 8 -1 19 -22 26 -47z"
       id="path1" />
    <path
       d="M2065 3386 c-27 -7 -60 -18 -72 -24 -13 -7 -65 -12 -128 -12 -107 0 -159 -12 -196 -46 -19 -17 -15 -44 5 -44 7 0 23 12 37 26 19 21 30 24 54 19 77 -16 115 -15 200 5 142 34 175 36 209 9 27 -21 28 -26 23 -79 -5 -58 -41 -141 -74 -172 -76 -72 -205 -128 -297 -128 -47 0 -52 3 -96 50 l-46 49 -89 -6 c-104 -7 -127 -15 -123 -46 2 -18 11 -23 48 -27 25 -3 51 -9 58 -13 23 -15 12 -45 -25 -68 -34 -21 -50 -24 -149 -24 -106 0 -111 1 -143 28 -54 45 -139 32 -129 -20 2 -10 31 -32 66 -50 58 -30 72 -33 151 -33 49 0 102 5 120 11 24 9 35 8 48 -2 10 -9 42 -14 82 -14 36 -1 82 -4 101 -8 25 -6 41 -4 55 6 28 22 6 43 -60 58 -59 13 -77 35 -48 57 14 10 44 11 129 6 99 -6 119 -4 184 16 115 36 189 92 277 212 28 38 33 54 35 114 3 76 -9 103 -68 143 -34 23 -66 25 -139 7z"
       id="path2" />
    <path
       d="M2205 2900 c-9 -28 3 -43 29 -36 13 3 39 -3 61 -14 46 -24 59 -25 74 -6 28 34 -35 76 -112 76 -37 0 -47 -4 -52 -20z"
       id="path3" />
    <path
       d="M1872 2512 c-7 -2 -12 -12 -12 -23 0 -25 37 -39 103 -39 88 0 168 -17 195 -42 34 -33 82 -131 82 -170 -1 -44 -33 -115 -57 -122 -10 -3 -62 -14 -115 -25 -53 -10 -102 -22 -107 -26 -17 -10 -13 -36 7 -51 24 -19 60 -17 127 6 32 11 71 20 86 20 46 0 85 42 108 119 26 85 26 103 1 176 -45 132 -109 171 -291 177 -63 2 -121 2 -127 0z"
       id="path4" />
    <path
       d="M1620 2403 c-34 -55 -35 -64 -15 -102 26 -52 77 -55 123 -8 18 18 32 43 32 56 0 27 -69 101 -94 101 -9 0 -29 -21 -46 -47z"
       id="path5" />
    <path
       d="M2366 2404 c-17 -16 -23 -119 -8 -140 24 -37 92 -37 117 -1 19 28 19 51 -2 85 -44 71 -76 88 -107 56z"
       id="path6" />
    <path
       d="M2777 1553 c-4 -3 -7 -21 -7 -38 0 -26 -13 -44 -77 -107 -62 -59 -86 -77 -118 -82 -23 -4 -53 -20 -70 -36 -25 -23 -59 -35 -195 -69 l-165 -41 -205 4 c-180 4 -210 7 -250 25 -25 11 -58 21 -75 21 -37 0 -175 29 -195 41 -8 5 -32 18 -53 29 -21 12 -59 41 -84 65 -44 41 -46 45 -35 70 16 34 7 65 -19 65 -11 0 -37 -11 -59 -25 -52 -33 -53 -64 -6 -111 19 -19 40 -34 48 -34 8 0 29 -18 46 -39 18 -22 42 -43 54 -46 13 -4 30 -13 38 -20 27 -24 167 -65 220 -65 32 0 66 -8 92 -21 30 -15 66 -22 132 -26 50 -2 108 -9 129 -14 20 -5 43 -7 50 -2 6 4 61 10 122 14 304 20 501 104 659 280 36 40 56 54 84 58 46 8 53 36 21 81 -22 29 -65 41 -82 23z"
       id="path7" />
    <path
       d="M2545 170 c-4 -6 9 -17 27 -24 39 -17 55 -33 92 -99 18 -31 34 -47 46 -47 24 0 24 1 1 53 -10 23 -21 50 -24 59 -3 9 -30 28 -60 42 -59 29 -73 31 -82 16z"
       id="path8" />
  </g>
  <path
     style="fill:#e9ddaf;stroke-width:0.54226"
     d="m 232.69382,411.27009 c -16.08487,-0.79141 -19.08067,-1.35019 -32.87108,-6.13112 -3.87716,-1.34416 -12.17374,-3.5881 -18.43684,-4.98655 -17.61521,-3.9332 -32.70159,-9.64075 -39.71496,-15.02514 -1.71796,-1.31894 -6.42696,-4.83486 -10.46446,-7.81316 -9.76448,-7.20288 -17.7266,-14.05944 -26.2969,-22.64551 -10.839651,-10.8596 -16.336387,-19.59568 -20.490666,-32.56629 -4.244121,-13.25112 -6.448874,-17.68541 -9.83328,-19.77709 -2.633853,-1.62781 -5.216225,-1.36411 -12.969753,1.3244 -9.107731,3.15807 -14.16047,3.94671 -19.737329,3.08063 -6.891469,-1.07024 -12.452278,-4.21424 -16.835526,-9.51857 -3.099248,-3.75052 -9.144494,-14.86947 -9.534732,-17.53712 -0.697892,-4.77077 1.463482,-16.80981 4.162245,-23.18407 5.045408,-11.91683 17.151581,-23.54722 28.466,-27.34723 5.914307,-1.98636 9.210866,-2.04962 14.539423,-0.27899 5.291193,1.75821 5.864224,1.62925 7.53113,-1.69479 0.908014,-1.8107 1.100885,-3.53547 1.280921,-11.45471 0.236648,-10.40961 -0.389619,-17.21976 -2.359036,-25.65272 -0.731335,-3.13155 -1.622654,-8.28308 -1.980708,-11.44785 -0.564058,-4.9856 -0.530892,-6.32546 0.248329,-10.03181 3.243798,-15.42907 3.693244,-16.86509 9.522142,-30.42407 1.822855,-4.24026 4.19028,-10.7067 5.26095,-14.36989 1.206262,-4.1271 3.367211,-9.54776 5.681549,-14.25196 2.054183,-4.1754 3.995815,-8.77563 4.314739,-10.222736 0.318919,-1.447102 0.974533,-3.399237 1.456917,-4.338078 4.207372,-8.188617 19.145115,-25.781019 30.815725,-36.292149 7.6465,-6.886804 12.32487,-10.388419 18.59228,-13.915729 2.76968,-1.55878 6.10622,-3.760606 7.41453,-4.892945 5.82361,-5.040298 18.33874,-11.141849 28.31224,-13.803177 3.82597,-1.020922 8.78644,-2.585956 11.02326,-3.477852 2.23682,-0.891896 5.89708,-1.887296 8.1339,-2.212 11.8012,-1.7131 40.30551,-2.147244 57.47954,-0.875461 15.99488,1.184465 20.45145,2.214194 43.73938,10.106345 21.78862,7.384041 27.15432,9.61064 35.10013,14.565471 7.38058,4.602358 13.3757,9.419758 19.58064,15.734079 2.0877,2.124503 4.57467,4.236445 5.5266,4.693205 4.3755,2.099469 28.28682,25.786729 32.01412,31.714117 1.12434,1.787998 3.45762,5.37125 5.18509,7.96278 1.72746,2.59153 5.17006,7.76208 7.65021,11.49012 5.21265,7.83536 10.98139,18.04544 13.12928,23.23744 0.82011,1.98243 2.82058,6.65463 4.44549,10.38267 5.27407,12.10036 6.56734,15.44544 7.34724,19.00391 0.42188,1.92493 1.65723,6.53834 2.74521,10.25204 2.53137,8.64053 4.46694,18.25671 5.15968,25.63391 0.5951,6.33751 1.15629,9.04341 4.07266,19.63723 3.26914,11.87524 4.30081,20.26976 4.3359,35.28052 l 0.0304,13.01423 -1.83821,7.32051 c -4.80508,19.1358 -12.01359,35.01948 -20.92358,46.10429 -1.56363,1.9453 -3.58406,5.03057 -4.48983,6.85617 -0.90577,1.82559 -2.96531,5.35834 -4.57676,7.85055 -1.61144,2.49221 -3.56984,5.64036 -4.352,6.99588 -0.78217,1.35552 -5.53581,6.48443 -10.56366,11.39758 -17.74983,17.34491 -26.33003,22.96399 -48.30798,31.63635 -5.75272,2.27 -12.41227,5.10909 -14.799,6.30912 -7.51722,3.77958 -27.93323,10.31249 -34.66122,11.09122 -1.64034,0.18986 -7.25672,0.9327 -12.48085,1.65075 -16.38855,2.25259 -34.97627,2.86683 -55.77952,1.84325 z m 31.17022,-57.43562 c 0.86467,-0.29277 7.42854,-1.03471 14.58637,-1.64875 27.84772,-2.38895 42.41881,-5.84314 58.30495,-13.82164 10.73699,-5.39244 16.37081,-9.62535 28.22907,-21.20961 8.04147,-7.85568 9.29726,-8.87412 11.89257,-9.64484 1.59593,-0.47394 3.23453,-0.86171 3.64132,-0.86171 1.54958,0 3.40162,-2.58593 3.40162,-4.74953 0,-2.37013 -2.20276,-6.27492 -4.60636,-8.16559 -3.10325,-2.44101 -8.34238,-2.79019 -9.49691,-0.63295 -0.29576,0.55264 -0.5431,2.05791 -0.54965,3.34505 -0.0212,4.15914 -1.70333,6.7061 -9.64499,14.60347 -8.47748,8.43021 -11.04071,10.24264 -17.15425,12.12959 -3.0568,0.94348 -5.34587,2.09996 -7.62235,3.85094 -5.63536,4.3345 -7.92521,5.1194 -33.88445,11.61471 l -15.44761,3.86518 -23.07259,-0.58932 c -27.55985,-0.70394 -30.94916,-1.02748 -37.47436,-3.57725 -3.37252,-1.31784 -6.74789,-2.15072 -10.94324,-2.70026 -7.39705,-0.96892 -16.30617,-2.7324 -20.78289,-4.11378 -4.26008,-1.31453 -11.33939,-5.20145 -16.19939,-8.89432 -4.49109,-3.41256 -11.1094,-10.11927 -11.1094,-11.25779 0,-0.43993 0.36602,-1.67591 0.81339,-2.7466 0.44736,-1.0707 0.81339,-3.03492 0.81339,-4.36495 0,-1.96658 -0.26685,-2.62813 -1.42878,-3.5421 -1.90753,-1.50047 -2.56276,-1.43455 -7.03246,0.70749 -7.00123,3.35525 -9.68092,6.87541 -8.33601,10.95055 0.92206,2.79385 6.57642,8.60931 9.92888,10.21178 1.79336,0.85721 4.45999,3.03341 7.41063,6.04771 2.85401,2.91559 5.51499,5.10163 6.98782,5.74065 1.30823,0.56759 3.75679,1.88265 5.44123,2.92235 5.80584,3.58357 19.52878,7.48993 29.38138,8.36369 4.57521,0.40574 6.90202,0.94751 11.38745,2.65144 6.18137,2.34817 9.70593,2.97464 21.9051,3.89352 4.47364,0.33696 9.72001,0.93064 11.65859,1.31928 4.45317,0.89277 7.00744,0.97891 9.00193,0.30359 z m 15.32068,-122.79956 c 3.3863,-1.06581 7.90062,-2.1954 10.03181,-2.51019 5.85918,-0.86544 7.07803,-1.40389 9.82457,-4.34016 4.25688,-4.55095 8.22386,-15.06923 8.77904,-23.2773 0.33775,-4.99331 -1.31165,-11.2091 -4.99398,-18.81988 -6.52864,-13.49366 -17.04205,-17.50509 -45.89185,-17.51021 -8.14243,-0.001 -9.12158,0.33887 -9.12158,3.17031 0,4.03769 3.49592,5.30704 16.57582,6.01859 15.13473,0.82334 21.41198,2.79284 25.18659,7.90234 4.40598,5.96416 8.66775,15.81681 8.66775,20.03871 0,4.49908 -3.72333,13.60031 -6.23798,15.24797 -0.63025,0.41296 -6.74692,1.94842 -13.59258,3.41214 -15.2302,3.25647 -16.77381,3.66537 -17.83209,4.72365 -2.16853,2.16853 0.37641,6.85801 4.33627,7.99033 2.34362,0.67015 8.39483,-0.19769 14.26821,-2.0463 z m 48.74106,-30.47397 c 4.3778,-3.24318 5.12934,-7.83928 2.18511,-13.36323 -2.16817,-4.0679 -7.18191,-9.40248 -9.33169,-9.92884 -2.00647,-0.49126 -5.16273,1.09148 -6.10536,3.06162 -1.07371,2.24411 -1.94307,9.19621 -1.60492,12.83428 0.4168,4.48426 1.53352,6.49917 4.32459,7.80286 3.00862,1.40531 8.36555,1.19846 10.53227,-0.40669 z m -100.04525,-3.77633 c 2.90462,-2.04144 6.26815,-6.44962 6.7127,-8.79752 0.41275,-2.18 -0.25631,-3.77594 -3.17218,-7.56667 -2.94494,-3.82853 -7.19565,-7.16841 -9.12331,-7.16841 -1.99881,0 -5.71761,4.2166 -8.42763,9.55576 -1.66416,3.27866 -1.94741,4.3132 -1.69539,6.19218 0.38754,2.88935 2.87726,6.91744 5.28834,8.55595 2.68645,1.82564 7.19772,1.49163 10.41747,-0.77129 z m 5.85252,-66.10986 c 0.90558,-0.46829 1.74768,-1.44358 1.95309,-2.26197 0.62823,-2.50306 -1.82259,-3.9839 -10.96821,-6.62726 -3.90928,-1.1299 -6.72949,-2.83136 -6.72949,-4.05998 0,-0.37372 0.63266,-1.27108 1.40592,-1.99412 l 1.40591,-1.3146 15.53971,0.15995 c 15.03955,0.15481 15.70951,0.11664 20.81561,-1.18603 15.26294,-3.89386 25.80453,-10.58901 36.23707,-23.014799 8.68552,-10.344972 9.98017,-13.66608 9.62893,-24.700577 -0.17251,-5.419634 -0.41439,-6.959251 -1.38237,-8.799124 -1.50721,-2.864763 -6.16257,-7.064746 -9.63232,-8.690102 -4.98403,-2.334701 -12.82145,-1.518548 -24.40169,2.541079 -4.68527,1.642491 -5.37885,1.730539 -17.35231,2.20282 -14.54118,0.573563 -19.61081,1.370863 -24.17086,3.801343 -3.74389,1.995472 -5.3823,3.780608 -5.3823,5.864304 0,3.422815 2.64771,3.602064 6.52912,0.442018 5.16508,-4.205147 4.21105,-3.961217 11.20359,-2.864578 8.33005,1.306399 13.70314,0.934783 25.9192,-1.792635 11.46406,-2.55952 17.43335,-3.454108 19.90416,-2.982933 2.73681,0.5219 5.55975,2.118958 7.20813,4.077955 1.44349,1.715485 1.48242,1.929551 1.21218,6.666461 -0.50138,8.788523 -4.73613,19.271305 -9.87559,24.446264 -8.39978,8.457789 -25.24404,16.159454 -36.94313,16.891414 -8.14203,0.50942 -8.29047,0.44379 -15.21592,-6.7271 l -6.05494,-6.269511 -8.85721,0.640718 c -9.46727,0.684847 -14.78774,1.374157 -16.94908,2.195897 -2.10358,0.799779 -3.16907,2.827396 -2.61727,4.980636 0.5281,2.06071 1.48484,2.46314 9.25286,3.89194 2.47973,0.45611 4.8589,1.12001 5.28704,1.47534 2.49467,2.07039 -0.77573,6.92897 -6.4001,9.50813 -3.35014,1.53627 -3.55269,1.55975 -15.15401,1.75629 -13.99539,0.2371 -16.07012,-0.10026 -20.68496,-3.3634 -3.94697,-2.79089 -6.39327,-3.67183 -10.29368,-3.70688 -4.73586,-0.0426 -7.42191,1.93333 -7.42191,5.45964 0,2.30133 3.22896,4.89519 10.78027,8.6599 l 6.17106,3.07658 12.5369,-0.008 c 10.37428,-0.007 13.13036,-0.1754 15.97717,-0.97705 3.38357,-0.9528 3.47563,-0.95032 5.5869,0.15013 2.54935,1.3288 7.67255,2.14512 14.01888,2.23375 2.53507,0.0354 5.9513,0.24989 7.59164,0.47665 5.06729,0.70049 8.64088,0.61107 10.32201,-0.25827 z m 81.65116,-9.12274 c 5.28649,-4.54724 -3.67767,-11.20214 -15.08929,-11.20214 -4.08601,0 -6.2494,1.1387 -6.69708,3.52502 -0.21284,1.13456 -0.11578,2.54192 0.22721,3.29473 0.5448,1.1957 0.91842,1.31415 4.14529,1.31415 2.93468,0 4.4101,0.37233 8.55222,2.15823 5.836,2.51622 6.87079,2.62249 8.86165,0.91001 z"
     id="path9"
     transform="scale(0.75)" />
  <path
     style="fill:#e9ddaf;stroke-width:0.54226"
     d="m 282.24623,465.33979 c -2.38595,-0.98845 -5.33157,-2.3088 -6.54583,-2.93411 -4.3954,-2.26352 -9.145,-3.50349 -15.18113,-3.96331 -9.25906,-0.70534 -24.03876,-4.23322 -29.62727,-7.07197 -2.39617,-1.21716 -2.82413,-2.74087 -2.51106,-8.94043 0.35522,-7.03438 0.26172,-7.00622 29.4636,-8.87465 27.53956,-1.76207 30.20015,-2.07103 37.41592,-4.345 5.91351,-1.86358 14.01266,-3.51836 15.12712,-3.0907 0.44706,0.17155 1.22722,1.11322 1.73367,2.0926 1.30307,2.51987 5.10073,15.32196 5.10073,17.19482 0,3.3439 -9.23135,14.50731 -14.72634,17.80845 -3.21448,1.93112 -10.23557,3.94688 -13.69347,3.93141 -1.25655,-0.006 -4.09818,-0.7889 -6.55594,-1.80711 z"
     id="path10"
     transform="scale(0.75)" />
  <text
     xml:space="preserve"
     transform="matrix(1.0803357,0,0,1.7369843,-79.927715,-369.24763)"
     id="text1-4-3"
     style="font-style:normal;font-weight:normal;font-size:48px;line-height:1;font-family:sans-serif;letter-spacing:-4.81252px;word-spacing:-0.31755px;white-space:pre;shape-inside:url(#rect1-7-4);fill:#d40000;fill-opacity:1;stroke:none"
     x="428.97626"
     y="0"><tspan
       x="130.29306"
       y="398.02907"
       id="tspan5"><tspan
         style="font-weight:bold;font-family:'Hack Nerd Font';-inkscape-font-specification:'Hack Nerd Font, Bold';text-align:center;direction:rtl;text-anchor:middle;fill:#00ff00"
         id="tspan3">HairlessLifting</tspan></tspan></text>
  <text
     xml:space="preserve"
     transform="matrix(1.0803357,0,0,1.7369843,-73.304338,-368.32292)"
     id="text1-4-3-8"
     style="font-style:normal;font-weight:normal;font-size:48px;line-height:1;font-family:sans-serif;letter-spacing:-4.81252px;word-spacing:-0.31755px;white-space:pre;shape-inside:url(#rect1-7-4-8);fill:#0000ff;fill-opacity:1;stroke:none"
     x="428.97626"
     y="0"><tspan
       x="130.29306"
       y="398.02907"
       id="tspan7"><tspan
         style="font-weight:bold;font-family:'Hack Nerd Font';-inkscape-font-specification:'Hack Nerd Font, Bold';text-align:center;direction:rtl;text-anchor:middle"
         id="tspan6">HairlessLifting</tspan></tspan></text>
</svg>
